<svg width="35" height="35" viewBox="0 0 35 35" fill="none" xmlns="http://www.w3.org/2000/svg">
<path d="M16.5664 13.6992V9.35156L9.25391 14.2188L12.5195 16.3984L16.5664 13.6992ZM26.4922 19.0781V15.9609L24.1563 17.5195L26.4922 19.0781ZM17.5 0C7.83594 0 0 7.83594 0 17.5C0 27.1641 7.83594 35 17.5 35C27.1641 35 35 27.1641 35 17.5C35 7.83594 27.1641 0 17.5 0ZM28.3594 20.8203C28.3594 20.8633 28.3555 20.9023 28.3516 20.9414C28.3516 20.957 28.3477 20.9687 28.3437 20.9805C28.3382 21.0232 28.3278 21.0652 28.3125 21.1055C28.3047 21.1289 28.2969 21.1523 28.2891 21.1719C28.2813 21.1875 28.2734 21.2031 28.2695 21.2188C28.2578 21.2383 28.25 21.2617 28.2383 21.2812C28.2305 21.2969 28.2227 21.3086 28.2109 21.3242C28.1992 21.3438 28.1836 21.3633 28.1719 21.3828C28.1602 21.3984 28.1523 21.4102 28.1406 21.4219C28.125 21.4375 28.1094 21.457 28.0938 21.4727C28.082 21.4844 28.0703 21.4961 28.0547 21.5078C28.0391 21.5234 28.0195 21.5391 28 21.5508C27.9844 21.5625 27.9727 21.5742 27.957 21.582C27.9531 21.5859 27.9453 21.5898 27.9414 21.5937L18.0156 28.2031C17.8594 28.3086 17.6797 28.3594 17.5 28.3594C17.3164 28.3594 17.1367 28.3047 16.9805 28.2031L7.05469 21.5977C7.05078 21.5938 7.04297 21.5898 7.03906 21.5859L6.99609 21.5547C6.97656 21.5391 6.96094 21.5273 6.94531 21.5117C6.93359 21.5 6.92188 21.4883 6.90625 21.4766C6.89063 21.4609 6.875 21.4453 6.85938 21.4258C6.84779 21.4137 6.83733 21.4007 6.82813 21.3867C6.8125 21.3672 6.80078 21.3477 6.78906 21.3281C6.78125 21.3125 6.76953 21.3008 6.76172 21.2852C6.75 21.2656 6.73828 21.2422 6.73047 21.2227C6.72266 21.207 6.71484 21.1914 6.71094 21.1758C6.70313 21.1523 6.69531 21.1289 6.6875 21.1094C6.68359 21.0938 6.67578 21.0781 6.67188 21.0625C6.66406 21.0352 6.66016 21.0117 6.65625 20.9844C6.65234 20.9727 6.65234 20.957 6.64844 20.9453C6.64453 20.9063 6.64062 20.8633 6.64062 20.8242V14.2148C6.64062 14.1758 6.64453 14.1328 6.64844 14.0937C6.65234 14.082 6.65234 14.0664 6.65625 14.0547C6.66176 14.0119 6.67225 13.97 6.6875 13.9297C6.69531 13.9063 6.70313 13.8828 6.71094 13.8633C6.71875 13.8477 6.72656 13.832 6.73047 13.8164C6.73828 13.7969 6.75 13.7734 6.76172 13.7539C6.76953 13.7383 6.77734 13.7266 6.78906 13.7109C6.8125 13.6758 6.83594 13.6445 6.85938 13.6133C6.875 13.5977 6.89063 13.5781 6.90625 13.5625C6.91797 13.5508 6.92969 13.5391 6.94531 13.5273C6.96094 13.5117 6.98047 13.4961 6.99609 13.4844C7.01172 13.4727 7.02344 13.4609 7.03906 13.4531C7.04297 13.4492 7.05078 13.4453 7.05469 13.4414L16.9805 6.83594C17.293 6.62891 17.7031 6.62891 18.0156 6.83594L27.9414 13.4414C27.9453 13.4453 27.9531 13.4492 27.957 13.4531L28 13.4844L28.0547 13.5273C28.0664 13.5391 28.0781 13.5508 28.0938 13.5625C28.1094 13.5781 28.125 13.5938 28.1406 13.6133C28.168 13.6445 28.1914 13.6758 28.2109 13.7109C28.2188 13.7266 28.2305 13.7383 28.2383 13.7539C28.25 13.7734 28.2617 13.793 28.2695 13.8164C28.2773 13.832 28.2852 13.8477 28.2891 13.8633C28.2969 13.8867 28.3047 13.9102 28.3125 13.9297C28.3164 13.9453 28.3242 13.9609 28.3281 13.9766C28.3359 14.0039 28.3398 14.0273 28.3437 14.0547C28.3477 14.0664 28.3477 14.082 28.3516 14.0937C28.3555 14.1328 28.3594 14.1758 28.3594 14.2148V20.8203V20.8203ZM18.4336 21.3398V25.6875L25.7461 20.8203L22.4805 18.6406L18.4336 21.3398ZM8.50781 15.9609V19.0781L10.8438 17.5195L8.50781 15.9609ZM17.5 15.3164L14.1992 17.5195L17.5 19.7227L20.8008 17.5195L17.5 15.3164ZM25.7461 14.2188L18.4336 9.35156V13.6992L22.4805 16.3984L25.7461 14.2188ZM12.5195 18.6406L9.25391 20.8203L16.5664 25.6875V21.3398L12.5195 18.6406V18.6406Z" fill="#3B4658"/>
</svg>
