<svg width="32" height="32" viewBox="0 0 32 32" fill="none" xmlns="http://www.w3.org/2000/svg">
<path d="M15.6105 10.4074C12.7434 10.4074 10.4035 12.7473 10.4035 15.6144C10.4035 18.4816 12.7434 20.8215 15.6105 20.8215C18.4777 20.8215 20.8176 18.4816 20.8176 15.6144C20.8176 12.7473 18.4777 10.4074 15.6105 10.4074ZM31.2277 15.6144C31.2277 13.4582 31.2473 11.3215 31.1262 9.16913C31.0051 6.66913 30.4348 4.45038 28.6066 2.62226C26.7746 0.790224 24.5598 0.223818 22.0598 0.102724C19.9035 -0.0183694 17.7668 0.00116189 15.6144 0.00116189C13.4582 0.00116189 11.3215 -0.0183694 9.16913 0.102724C6.66913 0.223818 4.45038 0.79413 2.62226 2.62226C0.790224 4.45429 0.223818 6.66913 0.102724 9.16913C-0.0183694 11.3254 0.00116189 13.4621 0.00116189 15.6144C0.00116189 17.7668 -0.0183694 19.9074 0.102724 22.0598C0.223818 24.5598 0.794131 26.7785 2.62226 28.6066C4.45429 30.4387 6.66913 31.0051 9.16913 31.1262C11.3254 31.2473 13.4621 31.2277 15.6144 31.2277C17.7707 31.2277 19.9074 31.2473 22.0598 31.1262C24.5598 31.0051 26.7785 30.4348 28.6066 28.6066C30.4387 26.7746 31.0051 24.5598 31.1262 22.0598C31.2512 19.9074 31.2277 17.7707 31.2277 15.6144ZM15.6105 23.6262C11.1769 23.6262 7.59882 20.048 7.59882 15.6144C7.59882 11.1808 11.1769 7.60272 15.6105 7.60272C20.0441 7.60272 23.6223 11.1808 23.6223 15.6144C23.6223 20.048 20.0441 23.6262 15.6105 23.6262ZM23.9504 9.14569C22.9152 9.14569 22.0793 8.30976 22.0793 7.2746C22.0793 6.23944 22.9152 5.40351 23.9504 5.40351C24.9855 5.40351 25.8215 6.23944 25.8215 7.2746C25.8218 7.5204 25.7736 7.76385 25.6797 7.991C25.5858 8.21815 25.4479 8.42454 25.2741 8.59835C25.1003 8.77216 24.8939 8.90997 24.6668 9.00389C24.4396 9.09782 24.1962 9.146 23.9504 9.14569Z" fill="#3B4658"/>
</svg>
