<svg width="30" height="30" viewBox="0 0 30 30" fill="none" xmlns="http://www.w3.org/2000/svg">
<path d="M16.5368 0C16.2444 0 16.0068 0.2376 16.0068 0.5304C16.0068 0.5576 16.0184 0.5812 16.0224 0.6076H16.0068V13.1828C16.0068 13.4756 16.2444 13.7132 16.5368 13.7132H29.1116V13.6976C29.138 13.7016 29.1616 13.7132 29.1892 13.7132C29.4816 13.7132 29.7192 13.4756 29.7192 13.1828C29.644 5.9348 23.7848 0.0756 16.5368 0Z" fill="#3B4658"/>
<path d="M26.6536 16.236C26.6536 15.9432 26.4164 15.7056 26.1236 15.7056H14.564C14.4234 15.7055 14.2886 15.6496 14.1892 15.5501C14.0898 15.4507 14.034 15.3158 14.034 15.1752V3.65801H14.0184C14.0224 3.63161 14.034 3.60802 14.034 3.58082C14.034 3.28762 13.7964 3.05042 13.5036 3.05042C13.4908 3.05042 13.4804 3.05681 13.468 3.05761V3.05401C13.4208 3.05361 13.374 3.05042 13.3268 3.05042C5.9668 3.05042 0 9.01722 0 16.3772C0 23.7372 5.9668 29.704 13.3268 29.704C20.6868 29.704 26.6536 23.7372 26.6536 16.3772C26.6536 16.3348 26.6516 16.2928 26.6508 16.25C26.6508 16.2448 26.6536 16.2408 26.6536 16.236Z" fill="#3B4658"/>
</svg>
